<svg width="54" height="54" viewBox="0 0 54 54" fill="none" xmlns="http://www.w3.org/2000/svg">
<path fill-rule="evenodd" clip-rule="evenodd" d="M53.6537 3C53.6537 2.20435 53.3377 1.44129 52.775 0.87868C52.2124 0.31607 51.4494 0 50.6537 0H32.6537C31.8581 0 31.095 0.31607 30.5324 0.87868C29.9698 1.44129 29.6537 2.20435 29.6537 3C29.6537 3.79565 29.9698 4.55871 30.5324 5.12132C31.095 5.68393 31.8581 6 32.6537 6H43.4117L24.5327 24.879C24.2462 25.1557 24.0176 25.4868 23.8604 25.8528C23.7032 26.2188 23.6204 26.6125 23.617 27.0108C23.6135 27.4091 23.6894 27.8042 23.8403 28.1729C23.9911 28.5416 24.2139 28.8765 24.4955 29.1582C24.7772 29.4399 25.1122 29.6626 25.4809 29.8135C25.8495 29.9643 26.2446 30.0402 26.6429 30.0368C27.0413 30.0333 27.4349 29.9505 27.8009 29.7933C28.1669 29.6361 28.498 29.4075 28.7747 29.121L47.6537 10.242V21C47.6537 21.7956 47.9698 22.5587 48.5324 23.1213C49.095 23.6839 49.8581 24 50.6537 24C51.4494 24 52.2124 23.6839 52.775 23.1213C53.3377 22.5587 53.6537 21.7956 53.6537 21V3ZM6.02572 6C5.18181 6.00144 4.34757 6.17982 3.57686 6.52365C2.80616 6.86747 2.11612 7.36908 1.55129 7.99611C0.986455 8.62314 0.559384 9.36164 0.297645 10.1639C0.035906 10.9662 -0.0546844 11.8145 0.031722 12.654C0.475722 17.013 1.15372 24.588 1.15372 30C1.15372 35.238 0.517722 42.51 0.0737218 46.926C-0.0149953 47.8218 0.0961667 48.7261 0.399192 49.5737C0.702217 50.4213 1.18955 51.1911 1.82606 51.8277C2.46257 52.4642 3.23239 52.9515 4.08002 53.2545C4.92764 53.5576 5.83194 53.6687 6.72772 53.58C11.1467 53.136 18.4157 52.5 23.6537 52.5C29.0657 52.5 36.6437 53.178 40.9997 53.622C41.8392 53.7084 42.6875 53.6178 43.4898 53.3561C44.2921 53.0943 45.0306 52.6673 45.6576 52.1024C46.2846 51.5376 46.7863 50.8476 47.1301 50.0769C47.4739 49.3062 47.6523 48.4719 47.6537 47.628V33C47.6537 32.2044 47.3376 31.4413 46.775 30.8787C46.2124 30.3161 45.4494 30 44.6537 30C43.8581 30 43.095 30.3161 42.5324 30.8787C41.9698 31.4413 41.6537 32.2044 41.6537 33V47.634L41.6447 47.643C41.6393 47.6471 41.6332 47.6502 41.6267 47.652H41.6087C37.2557 47.211 29.4047 46.5 23.6537 46.5C18.0827 46.5 10.5437 47.166 6.12772 47.61H6.10372C6.09014 47.6047 6.07787 47.5965 6.06772 47.586C6.05717 47.5759 6.04897 47.5636 6.04372 47.55V47.544V47.526C6.48772 43.107 7.15372 35.571 7.15372 30C7.15372 24.249 6.44272 16.398 5.99872 12.045V12.027L6.01072 12.009L6.01972 12H20.6537C21.4494 12 22.2124 11.6839 22.775 11.1213C23.3377 10.5587 23.6537 9.79565 23.6537 9C23.6537 8.20435 23.3377 7.44129 22.775 6.87868C22.2124 6.31607 21.4494 6 20.6537 6H6.02572Z" fill="white"/>
</svg>
